# xmcd
#
# Track frame offsets:
#	150
#	19462
#	42420
#	62696
#	83654
#	101009
#	122382
#	142713
#	160101
#	182093
#	200859
#	226057
#	244564
#
# Disc length: 3572 seconds
#
# Revision: 1
# Processed by: cddbd v1.5.1PL0 Copyright (c) Steve Scherf et al.
# Submitted via: CDex 1.50Beta5
#
DISCID=a20df20d
DTITLE=ZARD - SINGLE SELLECTION DISC-2
DYEAR=1900
DGENRE=
TTITLE0=不思議ね…
TTITLE1=運命のルーレット廻して
TTITLE2=眠れない夜を抱いて
TTITLE3=息もできない
TTITLE4=負けないで
TTITLE5=風が通り抜ける街へ
TTITLE6=揺れる想い
TTITLE7=君に逢いたくなったら…
TTITLE8=もう少し あと少し…
TTITLE9=心を開いて
TTITLE10=こんなにそばに居るのに
TTITLE11=愛が見えない
TTITLE12=あなたを感じていたい
EXTD=
EXTT0=
EXTT1=
EXTT2=
EXTT3=
EXTT4=
EXTT5=
EXTT6=
EXTT7=
EXTT8=
EXTT9=
EXTT10=
EXTT11=
EXTT12=
PLAYORDER=
